<svg width="22" height="22" viewBox="0 0 22 22" fill="none" xmlns="http://www.w3.org/2000/svg">
<path d="M6.38597 3.14282L15.8529 3.14422C17.0903 3.15923 17.7358 3.29736 18.4054 3.65546C19.0545 4.0026 19.5687 4.51671 19.9158 5.16581C20.2963 5.87726 20.4284 6.5616 20.4284 7.9575V14.0424C20.4284 15.4383 20.2963 16.1227 19.9158 16.8341C19.5687 17.4832 19.0545 17.9973 18.4054 18.3445C17.694 18.725 17.0097 18.8571 15.6138 18.8571H6.38597C4.99007 18.8571 4.30573 18.725 3.59428 18.3445C2.94518 17.9973 2.43107 17.4832 2.08393 16.8341C1.70344 16.1227 1.57129 15.4383 1.57129 14.0424L1.57268 7.7184C1.5877 6.481 1.72582 5.83541 2.08393 5.16581C2.43107 4.51671 2.94518 4.0026 3.59428 3.65546C4.30573 3.27497 4.99007 3.14282 6.38597 3.14282ZM18.6112 6.07198L13.2222 11.4602C12.0357 12.6467 10.1367 12.6862 8.90275 11.5789L8.77752 11.4602L3.38851 6.07198C3.20825 6.47644 3.14272 6.93908 3.14272 7.9575V14.0424C3.14272 15.2011 3.22754 15.6404 3.46964 16.093C3.67032 16.4683 3.96012 16.7581 4.33536 16.9588C4.73478 17.1724 5.12376 17.2635 6.0057 17.282L6.38597 17.2857H15.6138C16.7724 17.2857 17.2117 17.2009 17.6644 16.9588C18.0396 16.7581 18.3294 16.4683 18.5301 16.093C18.7437 15.6936 18.8349 15.3046 18.8534 14.4227L18.857 14.0424V7.9575C18.857 6.93908 18.7915 6.47644 18.6112 6.07198ZM15.6138 4.71425H6.38597C5.36754 4.71425 4.90491 4.77978 4.50045 4.96004L9.88869 10.3491C10.4701 10.9304 11.3937 10.961 12.0111 10.4409L12.111 10.3491L17.4993 4.96004C17.0948 4.77978 16.6322 4.71425 15.6138 4.71425Z" fill="#004EB7"/>
</svg>
