<svg width="25" height="24" viewBox="0 0 25 24" fill="none" xmlns="http://www.w3.org/2000/svg">
<path d="M11.9954 3.85712C16.0192 3.85712 19.2811 7.11904 19.2811 11.1428C19.2811 12.846 18.6967 14.4126 17.7175 15.6532L21.6015 19.5367C21.9362 19.8715 21.9362 20.4142 21.6015 20.7489C21.2668 21.0837 20.724 21.0837 20.3893 20.7489L16.5057 16.865C15.2652 17.8442 13.6985 18.4285 11.9954 18.4285C7.97161 18.4285 4.70969 15.1666 4.70969 11.1428C4.70969 7.11904 7.97161 3.85712 11.9954 3.85712ZM11.9954 5.5714C8.91839 5.5714 6.42397 8.06582 6.42397 11.1428C6.42397 14.2198 8.91839 16.7143 11.9954 16.7143C15.0724 16.7143 17.5668 14.2198 17.5668 11.1428C17.5668 8.06582 15.0724 5.5714 11.9954 5.5714Z" fill="#777777"/>
</svg>
