<svg width="18" height="19" viewBox="0 0 18 19" fill="none" xmlns="http://www.w3.org/2000/svg">
<path d="M12.2143 0.994904C12.5693 0.994904 12.8571 1.28272 12.8571 1.63776L12.8576 2.38336C13.3975 2.46926 13.747 2.60801 14.0982 2.7958C14.7268 3.13197 15.2201 3.62527 15.5562 4.25384C15.8616 4.82491 16.0373 5.39177 16.0669 6.78002L16.0714 6.78062V11.4788L16.068 11.871C16.0418 13.298 15.8655 13.872 15.5562 14.4502C15.2201 15.0788 14.7268 15.5721 14.0982 15.9083C13.4696 16.2445 12.8461 16.4235 11.1268 16.4235H6.87319L6.48103 16.4201C5.05405 16.3938 4.48007 16.2176 3.90178 15.9083C3.27321 15.5721 2.77991 15.0788 2.44374 14.4502C2.12103 13.8468 1.94313 13.2481 1.92942 11.68L1.92856 7.22525V6.78062C1.96263 5.39177 2.13833 4.82491 2.44374 4.25384C2.77991 3.62527 3.27321 3.13197 3.90178 2.7958C4.25307 2.60793 4.60277 2.46914 5.14304 2.38325L5.14284 1.63776C5.14284 1.28272 5.43066 0.994904 5.7857 0.994904C6.14074 0.994904 6.42856 1.28272 6.42856 1.63776L6.42796 2.2851C6.56776 2.28212 6.71589 2.28062 6.87319 2.28062H11.1268C11.2843 2.28062 11.4327 2.28212 11.5727 2.28511L11.5714 1.63776C11.5714 1.28272 11.8592 0.994904 12.2143 0.994904ZM14.7851 8.06633H3.21427L3.21487 11.6607L3.22055 12.0264C3.24555 12.9953 3.34792 13.4146 3.5775 13.8439C3.79384 14.2484 4.10361 14.5582 4.50813 14.7745C4.9879 15.0311 5.45524 15.1288 6.6913 15.1372H11.3087L11.6744 15.1315C12.6433 15.1065 13.0626 15.0041 13.4918 14.7745C13.8964 14.5582 14.2061 14.2484 14.4225 13.8439C14.6791 13.3641 14.7768 12.8968 14.7851 11.6607L14.7851 8.06633ZM12.2439 11.2806C12.5221 11.2806 12.7411 11.3328 12.9245 11.4309C13.1078 11.5289 13.2517 11.6728 13.3497 11.8561C13.4478 12.0395 13.5 12.2585 13.5 12.5368V12.5959C13.5 12.8741 13.4478 13.0932 13.3497 13.2765C13.2517 13.4599 13.1078 13.6037 12.9245 13.7018C12.7411 13.7998 12.5221 13.852 12.2439 13.852H12.1847C11.9065 13.852 11.6874 13.7998 11.5041 13.7018C11.3208 13.6037 11.1769 13.4599 11.0788 13.2765C10.9808 13.0932 10.9286 12.8741 10.9286 12.5959V12.5368C10.9286 12.2585 10.9808 12.0395 11.0788 11.8561C11.1769 11.6728 11.3208 11.5289 11.5041 11.4309C11.6874 11.3328 11.9065 11.2806 12.1847 11.2806H12.2439ZM11.3087 3.56693H6.6913L6.42856 3.57019V4.20919C6.42856 4.56423 6.14074 4.85205 5.7857 4.85205C5.43066 4.85205 5.14284 4.56423 5.14284 4.20919L5.14236 3.69009C4.89763 3.7466 4.70391 3.82485 4.50813 3.92956C4.10361 4.1459 3.79384 4.45567 3.5775 4.86019C3.34002 5.30424 3.23864 5.73764 3.21825 6.77975L14.7812 6.78062L14.7794 6.67767C14.7544 5.70877 14.6521 5.28946 14.4225 4.86019C14.2061 4.45567 13.8964 4.1459 13.4918 3.92956C13.2961 3.82488 13.1024 3.74664 12.8578 3.69013L12.8571 4.20919C12.8571 4.56423 12.5693 4.85205 12.2143 4.85205C11.8592 4.85205 11.5714 4.56423 11.5714 4.20919L11.5729 3.57032C11.4889 3.56867 11.4009 3.56755 11.3087 3.56693Z" fill="#004EB7"/>
</svg>
