<svg width="14" height="14" viewBox="0 0 14 14" fill="none" xmlns="http://www.w3.org/2000/svg">
<mask id="path-1-outside-1_1_308" maskUnits="userSpaceOnUse" x="0" y="0.5" width="14" height="14" fill="black">
<rect fill="white" y="0.5" width="14" height="14"/>
<path fill-rule="evenodd" clip-rule="evenodd" d="M8 10.5C10.2091 10.5 12 8.70914 12 6.5C12 4.29086 10.2091 2.5 8 2.5C5.79086 2.5 4 4.29086 4 6.5C4 7.2899 4.22896 8.02633 4.62414 8.64653L4.31999 9.56535L4.01584 10.4842L4.9505 10.1807L5.86553 9.88352C6.48321 10.274 7.21521 10.5 8 10.5ZM8.44388 10.4597C8.29815 10.4759 8.15004 10.4842 8 10.4842C6.82959 10.4842 5.77706 9.97948 5.04815 9.17588C5.77705 9.97934 6.82949 10.4839 7.99978 10.4839C10.2002 10.4839 11.9839 8.70015 11.9839 6.49976C11.9839 5.46624 11.5904 4.52463 10.945 3.8166C11.5905 4.52466 11.9842 5.46636 11.9842 6.5C11.9842 6.77103 11.9571 7.03573 11.9055 7.29156C11.8843 7.39707 11.8588 7.50108 11.8294 7.60339C11.7846 7.759 11.7307 7.91069 11.6681 8.05786C11.6153 8.18199 11.5564 8.3029 11.4917 8.4202C11.4332 8.5265 11.3699 8.62984 11.3021 8.72993C11.23 8.8365 11.1529 8.93939 11.0711 9.03826C10.8068 9.35762 10.4937 9.63508 10.1432 9.85918C10.0518 9.91764 9.95781 9.97246 9.86149 10.0235C9.53375 10.197 9.17889 10.3261 8.80493 10.4028C8.68641 10.4271 8.56598 10.4462 8.44388 10.4597Z"/>
</mask>
<path fill-rule="evenodd" clip-rule="evenodd" d="M8 10.5C10.2091 10.5 12 8.70914 12 6.5C12 4.29086 10.2091 2.5 8 2.5C5.79086 2.5 4 4.29086 4 6.5C4 7.2899 4.22896 8.02633 4.62414 8.64653L4.31999 9.56535L4.01584 10.4842L4.9505 10.1807L5.86553 9.88352C6.48321 10.274 7.21521 10.5 8 10.5ZM8.44388 10.4597C8.29815 10.4759 8.15004 10.4842 8 10.4842C6.82959 10.4842 5.77706 9.97948 5.04815 9.17588C5.77705 9.97934 6.82949 10.4839 7.99978 10.4839C10.2002 10.4839 11.9839 8.70015 11.9839 6.49976C11.9839 5.46624 11.5904 4.52463 10.945 3.8166C11.5905 4.52466 11.9842 5.46636 11.9842 6.5C11.9842 6.77103 11.9571 7.03573 11.9055 7.29156C11.8843 7.39707 11.8588 7.50108 11.8294 7.60339C11.7846 7.759 11.7307 7.91069 11.6681 8.05786C11.6153 8.18199 11.5564 8.3029 11.4917 8.4202C11.4332 8.5265 11.3699 8.62984 11.3021 8.72993C11.23 8.8365 11.1529 8.93939 11.0711 9.03826C10.8068 9.35762 10.4937 9.63508 10.1432 9.85918C10.0518 9.91764 9.95781 9.97246 9.86149 10.0235C9.53375 10.197 9.17889 10.3261 8.80493 10.4028C8.68641 10.4271 8.56598 10.4462 8.44388 10.4597Z" fill="white"/>
<path d="M8 10.4842L7.87157 11.4759L7.96295 11.4877L8.05495 11.4826L8 10.4842ZM6.97822 10.3519L6.67942 11.3062L6.76305 11.3324L6.84996 11.3437L6.97822 10.3519ZM5.14622 9.2802L4.36921 9.90969L4.4292 9.98373L4.50209 10.0451L5.14622 9.2802ZM5.75842 9.79422L5.11543 10.5601L5.19397 10.626L5.28426 10.6747L5.75842 9.79422ZM6.48713 10.1869L6.01266 11.0672L6.08685 11.1071L6.16668 11.1341L6.48713 10.1869ZM9.35446 10.248L9.62563 11.2105L9.69422 11.1912L9.75939 11.1624L9.35446 10.248ZM10.6693 9.4578L11.2759 10.2528L11.3377 10.2056L11.3915 10.1495L10.6693 9.4578ZM8.12843 9.49244L8.12658 9.4922L7.86971 11.4756L7.87157 11.4759L8.12843 9.49244ZM7.10783 9.36036L7.10648 9.36018L6.84996 11.3437L6.85131 11.3438L7.10783 9.36036ZM7.21345 11.4207L7.21666 11.4211L7.43184 9.43269L7.42863 9.43234L7.21345 11.4207ZM7.703 11.4737L7.7067 11.4741L7.92189 9.48571L7.91819 9.48531L7.703 11.4737ZM4.50209 10.0451L4.50218 10.0452L5.79045 8.51536L5.79036 8.51529L4.50209 10.0451ZM5.11485 10.5596L5.11543 10.5601L6.4014 9.02835L6.40083 9.02786L5.11485 10.5596ZM5.28426 10.6747L5.2849 10.675L6.23321 8.91413L6.23257 8.91378L5.28426 10.6747ZM6.01148 11.0665L6.01266 11.0672L6.9616 9.30661L6.96042 9.30598L6.01148 11.0665ZM4.36913 9.90958L4.36921 9.90969L5.92323 8.65071L5.92315 8.65061L4.36913 9.90958ZM6.7406 9.20852L6.73862 9.20742L5.76706 10.9556L5.76904 10.9567L6.7406 9.20852ZM6.37236 9.00386L6.37091 9.00306L5.39938 10.7512L5.40083 10.752L6.37236 9.00386ZM12.9006 7.39051L12.9009 7.3879L10.9107 7.19001L10.9104 7.19261L12.9006 7.39051ZM12.979 6.60114L12.9793 6.59895L10.9891 6.40105L10.9888 6.40325L12.979 6.60114ZM6.16668 11.1341L6.16877 11.1349L6.80966 9.24032L6.80757 9.23961L6.16668 11.1341ZM6.67564 11.3051L6.67942 11.3062L7.27701 9.3976L7.27323 9.39642L6.67564 11.3051ZM8.05495 11.4826L8.05934 11.4824L7.94945 9.48543L7.94505 9.48567L8.05495 11.4826ZM8.49413 11.4585L8.4989 11.4582L8.38887 9.46122L8.3841 9.46149L8.49413 11.4585ZM9.07608 11.3653L9.07982 11.3643L8.53752 9.43922L8.53378 9.44027L9.07608 11.3653ZM9.62161 11.2117L9.62563 11.2105L9.08329 9.28548L9.07927 9.28661L9.62161 11.2117ZM9.75939 11.1624L9.76333 11.1606L8.95346 9.33193L8.94952 9.33367L9.75939 11.1624ZM10.2624 10.9396L10.2665 10.9378L9.45649 9.10914L9.45236 9.11097L10.2624 10.9396ZM10.7498 10.6542L10.7529 10.6519L9.53972 9.06181L9.53664 9.06416L10.7498 10.6542ZM11.2728 10.2552L11.2759 10.2528L10.0627 8.66279L10.0596 8.66517L11.2728 10.2552ZM11.3915 10.1495L11.3946 10.1462L9.9502 8.76289L9.94709 8.76614L11.3915 10.1495ZM11.7903 9.73312L11.7933 9.7299L10.3488 8.34663L10.3458 8.34985L11.7903 9.73312ZM12.155 9.25204L12.1587 9.24605L10.4529 8.20183L10.4493 8.20782L12.155 9.25204ZM12.3411 8.9481L12.3446 8.94226L10.6388 7.89813L10.6353 7.90397L12.3411 8.9481ZM12.6105 8.39238L12.6121 8.38779L10.7273 7.71874L10.7257 7.72333L12.6105 8.39238ZM12.7703 7.94218L12.7718 7.93788L10.887 7.2689L10.8855 7.2732L12.7703 7.94218ZM6.64007 11.2943L6.64269 11.2952L7.28368 9.40066L7.28106 9.39978L6.64007 11.2943ZM6.94224 9.29278L6.93899 9.29177L6.34161 11.2005L6.34486 11.2015L6.94224 9.29278ZM4.62414 8.64653L6.52282 9.27504L6.82139 8.37308L6.31084 7.57181L4.62414 8.64653ZM4.31999 9.56535L6.21867 10.1939L4.31999 9.56535ZM4.01584 10.4842L2.11716 9.85565L0.875466 13.6067L4.63354 12.3864L4.01584 10.4842ZM4.9505 10.1807L5.56819 12.0829H5.56819L4.9505 10.1807ZM5.86553 9.88352L6.93423 8.19299L6.14072 7.69136L5.24783 7.9813L5.86553 9.88352ZM8.44388 10.4597L8.22353 8.47189H8.22353L8.44388 10.4597ZM5.04815 9.17588L6.52942 7.83206L3.56677 10.5196L5.04815 9.17588ZM10.945 3.8166L12.423 2.46916L9.46694 5.16393L10.945 3.8166ZM11.9055 7.29156L13.8661 7.68677L13.8661 7.68676L11.9055 7.29156ZM11.8294 7.60339L13.7515 8.15621V8.15621L11.8294 7.60339ZM11.6681 8.05786L13.5086 8.84052L13.5086 8.84051L11.6681 8.05786ZM11.4917 8.4202L13.2434 9.38551L13.2434 9.3855L11.4917 8.4202ZM11.3021 8.72993L9.64569 7.60914L9.64568 7.60915L11.3021 8.72993ZM11.0711 9.03826L12.612 10.3133L12.612 10.3133L11.0711 9.03826ZM10.1432 9.85918L11.2205 11.5442L11.2205 11.5442L10.1432 9.85918ZM9.86149 10.0235L8.92572 8.25588V8.25588L9.86149 10.0235ZM8.80493 10.4028L8.40298 8.44362H8.40298L8.80493 10.4028ZM10 6.5C10 7.60457 9.10457 8.5 8 8.5V12.5C11.3137 12.5 14 9.81371 14 6.5H10ZM8 4.5C9.10457 4.5 10 5.39543 10 6.5H14C14 3.18629 11.3137 0.5 8 0.5V4.5ZM6 6.5C6 5.39543 6.89543 4.5 8 4.5V0.5C4.68629 0.5 2 3.18629 2 6.5H6ZM6.31084 7.57181C6.11419 7.26317 6 6.89797 6 6.5H2C2 7.68183 2.34374 8.78949 2.93744 9.72126L6.31084 7.57181ZM6.21867 10.1939L6.52282 9.27504L2.72546 8.01802L2.42131 8.93684L6.21867 10.1939ZM5.91452 11.1127L6.21867 10.1939L2.42131 8.93684L2.11716 9.85565L5.91452 11.1127ZM4.3328 8.27843L3.39814 8.58194L4.63354 12.3864L5.56819 12.0829L4.3328 8.27843ZM5.24783 7.9813L4.3328 8.27843L5.56819 12.0829L6.48323 11.7857L5.24783 7.9813ZM8 8.5C7.60455 8.5 7.24155 8.38727 6.93423 8.19299L4.79684 11.574C5.72487 12.1607 6.82587 12.5 8 12.5V8.5ZM8 12.4842C8.22381 12.4842 8.44547 12.4718 8.66423 12.4475L8.22353 8.47189C8.15082 8.47995 8.07628 8.48416 8 8.48416V12.4842ZM3.56677 10.5196C4.6588 11.7235 6.24196 12.4842 8 12.4842V8.48416C7.41723 8.48416 6.89533 8.23547 6.52953 7.83218L3.56677 10.5196ZM7.99978 8.48392C7.41706 8.48392 6.89521 8.23528 6.52942 7.83206L3.56687 10.5197C4.65889 11.7234 6.24192 12.4839 7.99978 12.4839V8.48392ZM9.98394 6.49976C9.98394 7.59558 9.0956 8.48392 7.99978 8.48392V12.4839C11.3047 12.4839 13.9839 9.80472 13.9839 6.49976H9.98394ZM9.46694 5.16393C9.7897 5.51802 9.98394 5.98389 9.98394 6.49976H13.9839C13.9839 4.94858 13.3911 3.53124 12.4231 2.46928L9.46694 5.16393ZM13.9842 6.5C13.9842 4.94865 13.3912 3.53116 12.423 2.46916L9.46705 5.16405C9.78988 5.51815 9.98416 5.98407 9.98416 6.5H13.9842ZM13.8661 7.68676C13.9437 7.30156 13.9842 6.90448 13.9842 6.5H9.98416C9.98416 6.63757 9.97045 6.7699 9.94496 6.89636L13.8661 7.68676ZM13.7515 8.15621C13.7958 8.00212 13.8341 7.84554 13.8661 7.68677L9.94496 6.89635C9.93443 6.94861 9.92185 7.00004 9.90731 7.05057L13.7515 8.15621ZM13.5086 8.84051C13.6028 8.619 13.6841 8.39057 13.7515 8.15621L9.90731 7.05057C9.88521 7.12742 9.85854 7.20238 9.82758 7.2752L13.5086 8.84051ZM13.2434 9.3855C13.3405 9.20921 13.4291 9.02735 13.5086 8.84052L9.82758 7.27519C9.80146 7.33662 9.77225 7.39659 9.74012 7.45489L13.2434 9.3855ZM12.9586 9.85073C13.0602 9.70049 13.1553 9.54528 13.2434 9.38551L9.74012 7.45488C9.71101 7.50772 9.67949 7.55919 9.64569 7.60914L12.9586 9.85073ZM12.612 10.3133C12.7347 10.165 12.8504 10.0107 12.9586 9.85072L9.64568 7.60915C9.6097 7.66232 9.57115 7.71376 9.53018 7.76327L12.612 10.3133ZM11.2205 11.5442C11.7466 11.2079 12.216 10.7919 12.612 10.3133L9.53019 7.76326C9.39771 7.92337 9.24083 8.06229 9.06589 8.17414L11.2205 11.5442ZM10.7973 11.791C10.9421 11.7144 11.0833 11.632 11.2205 11.5442L9.0659 8.17414C9.02031 8.20328 8.97355 8.23055 8.92572 8.25588L10.7973 11.791ZM9.20688 12.362C9.77003 12.2465 10.3044 12.052 10.7973 11.791L8.92572 8.25588C8.76314 8.34195 8.58776 8.40571 8.40298 8.44362L9.20688 12.362ZM8.66423 12.4475C8.84749 12.4272 9.02852 12.3986 9.20688 12.362L8.40298 8.44362C8.34431 8.45565 8.28447 8.46513 8.22353 8.47189L8.66423 12.4475Z" fill="#ADADAD" mask="url(#path-1-outside-1_1_308)"/>
</svg>
