<svg width="35" height="35" viewBox="0 0 35 35" fill="none" xmlns="http://www.w3.org/2000/svg">
<g clip-path="url(#clip0_1_428)">
<mask id="mask0_1_428" style="mask-type:alpha" maskUnits="userSpaceOnUse" x="0" y="0" width="35" height="35">
<path d="M35 0H0V35H35V0Z" fill="white"/>
<path fill-rule="evenodd" clip-rule="evenodd" d="M17.5343 34.7941C27.1045 34.7941 34.8627 27.0359 34.8627 17.4657C34.8627 7.89545 27.1045 0.137255 17.5343 0.137255C7.96407 0.137255 0.205872 7.89545 0.205872 17.4657C0.205872 20.8877 1.19776 24.0779 2.90972 26.7647L1.59211 30.7451L0.274499 34.7255L4.32352 33.4107L8.28758 32.1235C10.9634 33.815 14.1345 34.7941 17.5343 34.7941Z" fill="black"/>
</mask>
<g mask="url(#mask0_1_428)">
<path d="M3.85906 27.079L4.00834 26.628L3.75307 26.2273C2.14038 23.6964 1.20587 20.6917 1.20587 17.4657C1.20587 8.44774 8.51635 1.13725 17.5343 1.13725C26.5523 1.13725 33.8627 8.44774 33.8627 17.4657C33.8627 26.4836 26.5523 33.7941 17.5343 33.7941C14.3292 33.7941 11.3426 32.8717 8.82191 31.2782L8.42517 31.0274L7.97874 31.1724L4.01468 32.4595L1.84469 33.1642L2.54145 31.0594L3.85906 27.079Z" stroke="black" stroke-width="2"/>
</g>
</g>
<defs>
<clipPath id="clip0_1_428">
<rect width="35" height="35" fill="white"/>
</clipPath>
</defs>
</svg>
