<svg width="55" height="56" viewBox="0 0 55 56" fill="none" xmlns="http://www.w3.org/2000/svg">
<circle cx="27.5" cy="28" r="27.5" fill="white"/>
<g clip-path="url(#clip0_1_194)">
<path d="M15.3448 28.3793C10.3254 28.3793 9.18438 33.8471 9.13797 39.8712C9.1361 40.1219 9.28969 40.3476 9.52516 40.4531C10.3315 40.8142 11.3952 41.1009 12.486 41.2871L18.1867 41.2901C19.2844 41.1039 20.3541 40.8161 21.1645 40.4531C21.4 40.3476 21.5536 40.122 21.5517 39.8713C21.5052 33.8472 20.3643 28.3793 15.3448 28.3793Z" fill="#7D5A50"/>
<path d="M22.2414 45.6207V44.7524C22.2414 44.0099 21.8436 43.3244 21.1989 42.956L18.1088 41.1902C17.679 40.9446 17.4138 40.4877 17.4138 39.9927V38.7241H13.2759V39.9927C13.2759 40.4877 13.0107 40.9446 12.5809 41.1902L9.49086 42.956C8.84618 43.3244 8.44836 44.0099 8.44836 44.7524V45.6207C8.44836 46.3825 9.06586 47 9.82766 47H20.8621C21.6239 47 22.2414 46.3825 22.2414 45.6207Z" fill="#D29B6E"/>
<path d="M18.7931 33.8966V37.5527C18.7931 38.2794 18.4118 38.9528 17.7887 39.3268L16.0545 40.3673C15.6177 40.6294 15.072 40.6294 14.6352 40.3673L12.9011 39.3268C12.2779 38.9529 11.8966 38.2795 11.8966 37.5527V33.8966C11.8966 33.8966 16.0346 33.8966 17.4139 32.5173L18.7931 33.8966Z" fill="#F0C087"/>
<path d="M21.199 42.956L19.1857 41.8056C18.8054 42.3452 17.3642 44.2321 15.3449 44.931C13.3255 44.2321 11.8843 42.3452 11.504 41.8056L9.49079 42.956C8.8461 43.3244 8.44829 44.0099 8.44829 44.7524V45.6207C8.44829 46.3825 9.06579 47 9.82758 47H20.862C21.6238 47 22.2413 46.3825 22.2413 45.6207V44.7524C22.2414 44.0099 21.8435 43.3244 21.199 42.956Z" fill="#E4EAF6"/>
<path d="M25.6897 10.4483H9.13797C7.62071 10.4483 6.37938 11.6897 6.37938 13.2069V22.862C6.37938 24.3793 7.62079 25.6206 9.13797 25.6206H18.1035V28.2364C18.1035 28.5437 18.475 28.6974 18.6921 28.4802L21.5518 25.6207H25.6898C27.207 25.6207 28.4484 24.3793 28.4484 22.8621V13.2069C28.4483 11.6897 27.2069 10.4483 25.6897 10.4483Z" fill="#E4EAF6"/>
<path d="M21.5517 10.4483V19.4138C21.5517 20.9311 22.7931 22.1724 24.3103 22.1724H28.4483V22.8621C28.4483 23.1016 28.4067 23.3301 28.348 23.5518H24.3104C22.0288 23.5518 20.1724 21.6955 20.1724 19.4138V10.4483H21.5517Z" fill="#D7DEED"/>
<path d="M18.7931 16.6551C18.7931 14.3734 16.937 12.5172 14.6551 12.5172C12.3733 12.5172 10.5172 14.3733 10.5172 16.6551V18.7241C10.5172 21.0059 12.3733 22.8621 14.6551 22.8621C15.5475 22.8621 16.3724 22.5754 17.0491 22.0932L17.6159 22.66C17.7506 22.7948 17.9269 22.862 18.1034 22.862C18.2799 22.862 18.4564 22.7947 18.591 22.66C18.8604 22.3906 18.8604 21.9541 18.591 21.6848L18.0242 21.118C18.5064 20.4414 18.7931 19.6165 18.7931 18.7241V16.6551ZM16.8669 19.9607C16.5975 19.6913 16.161 19.6913 15.8916 19.9607C15.6223 20.2301 15.6223 20.6666 15.8916 20.9359L16.0477 21.0919C15.6375 21.3342 15.1652 21.4827 14.6551 21.4827C13.1337 21.4827 11.8966 20.2452 11.8966 18.7241V16.6551C11.8966 15.1341 13.1338 13.8966 14.6551 13.8966C16.1765 13.8966 17.4137 15.1341 17.4137 16.6551V18.7241C17.4137 19.2342 17.2652 19.7064 17.0229 20.1166L16.8669 19.9607Z" fill="#707487"/>
<path d="M24.3103 7H40.862C42.3793 7 43.6206 8.24141 43.6206 9.75859V19.4137C43.6206 20.931 42.3792 22.1723 40.862 22.1723H31.8966V24.7881C31.8966 25.0954 31.5251 25.2491 31.308 25.032L28.4483 22.1724H24.3103C22.793 22.1724 21.5517 20.931 21.5517 19.4138V9.75859C21.5517 8.24141 22.7931 7 24.3103 7Z" fill="#C3E678"/>
<path d="M41.5885 41.669L38.3087 40.4391C37.7704 40.2372 37.4137 39.6008 37.4137 39.0259H31.8965C31.8965 39.6008 31.5398 40.2372 31.0015 40.4391L27.7217 41.669C26.9142 41.9718 26.3792 42.7438 26.3792 43.6063V45.6207C26.3792 46.3825 26.9967 47 27.7585 47H41.5516C42.3134 47 42.9309 46.3825 42.9309 45.6207V43.6063C42.931 42.7438 42.396 41.9718 41.5885 41.669Z" fill="#D29B6E"/>
<path d="M41.5885 41.669L38.9358 40.6742L35.5382 43.5056C35.0266 43.9319 34.2837 43.9319 33.7722 43.5056L30.3746 40.6742L27.7219 41.669C26.9144 41.9718 26.3794 42.7438 26.3794 43.6063V45.6207C26.3794 46.3825 26.9969 47 27.7587 47H41.5518C42.3136 47 42.9311 46.3825 42.9311 45.6207V43.6063C42.931 42.7438 42.396 41.9718 41.5885 41.669Z" fill="#C3E678"/>
<path d="M39.2866 30.6318L38.8563 37.0868C38.8162 37.6884 38.5156 38.2426 38.0333 38.6044L36.5862 39.6896C36.2281 39.9582 35.7926 40.1034 35.3448 40.1034H33.9655C33.5179 40.1034 33.0823 39.9583 32.7241 39.6896L31.2771 38.6043C30.7948 38.2426 30.4941 37.6884 30.4541 37.0867L30.0237 30.6317C29.9177 29.0395 31.1805 27.6896 32.7762 27.6896H36.5341C38.1298 27.6897 39.3927 29.0395 39.2866 30.6318Z" fill="#F0C087"/>
<path d="M39.7441 34.0817C39.3723 34.0504 39.0348 34.3441 39.0099 34.7239C38.9406 35.7709 37.995 36.6552 36.9457 36.6552H34.6552V38.0345H36.9457C38.7251 38.0345 40.268 36.5905 40.3866 34.8155C40.4115 34.4353 40.124 34.1069 39.7441 34.0817Z" fill="#5B5D6E"/>
<path d="M36.5341 27.6897H32.7763C31.1805 27.6897 29.9176 29.0396 30.0238 30.6317L30.1953 33.2052C30.4325 33.1889 36.3479 32.7637 39.2448 31.2592L39.2866 30.6317C39.3927 29.0395 38.1299 27.6897 36.5341 27.6897Z" fill="#5A4146"/>
<path d="M34.6552 38.0345C35.0361 38.0345 35.3448 37.7257 35.3448 37.3448C35.3448 36.9639 35.0361 36.6552 34.6552 36.6552C34.2743 36.6552 33.9655 36.9639 33.9655 37.3448C33.9655 37.7257 34.2743 38.0345 34.6552 38.0345Z" fill="#707487"/>
<path d="M36.7066 18.5689L34.8841 10.6732C34.6666 9.72867 33.8376 9.06898 32.8684 9.06898H32.304C31.3348 9.06898 30.5058 9.72867 30.2882 10.6726L28.4657 18.569C28.3802 18.9405 28.6118 19.3105 28.983 19.3964C29.3541 19.4799 29.7238 19.2506 29.81 18.8795L30.3234 16.6552H34.8491L35.3624 18.8795C35.4365 19.1984 35.72 19.4142 36.0339 19.4138C36.0851 19.4138 36.1376 19.4081 36.1895 19.3963C36.5605 19.3105 36.7922 18.9403 36.7066 18.5689ZM30.6417 15.2759L31.6326 10.9823C31.7046 10.6679 31.9808 10.4483 32.3041 10.4483H32.8684C33.1917 10.4483 33.4678 10.6678 33.5399 10.983L34.5307 15.2759H30.6417Z" fill="white"/>
</g>
<defs>
<clipPath id="clip0_1_194">
<rect width="40" height="40" fill="white" transform="translate(5 7)"/>
</clipPath>
</defs>
</svg>
