<svg width="35" height="35" viewBox="0 0 35 35" fill="none" xmlns="http://www.w3.org/2000/svg">
<g clip-path="url(#clip0_1_403)">
<path d="M17.5 0C7.85053 0 0 7.85053 0 17.5C0 27.1495 7.85053 35 17.5 35C27.1495 35 35 27.1495 35 17.5C35 7.85053 27.1495 0 17.5 0ZM17.5 32.4391C9.26263 32.4391 2.56095 25.7374 2.56095 17.5C2.56095 9.26263 9.26263 2.56095 17.5 2.56095C25.7374 2.56095 32.4391 9.26263 32.4391 17.5C32.4391 25.7374 25.7374 32.4391 17.5 32.4391Z" fill="black"/>
<path d="M24.5817 7.90118L22.3695 6.6109L17.5114 14.9393C17.5075 14.9393 17.5038 14.939 17.5 14.939C16.0856 14.939 14.9391 16.0856 14.9391 17.4999C14.9391 18.9142 16.0856 20.0609 17.5 20.0609C18.9144 20.0609 20.061 18.9144 20.061 17.5C20.061 17.0375 19.9378 16.6042 19.7234 16.2297L24.5817 7.90118Z" fill="black"/>
<path d="M17.5 7.25614C18.2072 7.25614 18.7805 6.68284 18.7805 5.97563C18.7805 5.26843 18.2072 4.69513 17.5 4.69513C16.7928 4.69513 16.2195 5.26843 16.2195 5.97563C16.2195 6.68284 16.7928 7.25614 17.5 7.25614Z" fill="black"/>
<path d="M7.51987 13.0183C8.22708 13.0183 8.80038 12.445 8.80038 11.7378C8.80038 11.0306 8.22708 10.4573 7.51987 10.4573C6.81267 10.4573 6.23936 11.0306 6.23936 11.7378C6.23936 12.445 6.81267 13.0183 7.51987 13.0183Z" fill="black"/>
<path d="M7.51987 24.5427C8.22708 24.5427 8.80038 23.9694 8.80038 23.2622C8.80038 22.555 8.22708 21.9817 7.51987 21.9817C6.81267 21.9817 6.23936 22.555 6.23936 23.2622C6.23936 23.9694 6.81267 24.5427 7.51987 24.5427Z" fill="black"/>
<path d="M27.4801 24.5427C28.1873 24.5427 28.7606 23.9694 28.7606 23.2622C28.7606 22.555 28.1873 21.9817 27.4801 21.9817C26.7729 21.9817 26.1996 22.555 26.1996 23.2622C26.1996 23.9694 26.7729 24.5427 27.4801 24.5427Z" fill="black"/>
<path d="M27.4801 13.0183C28.1873 13.0183 28.7606 12.445 28.7606 11.7378C28.7606 11.0306 28.1873 10.4573 27.4801 10.4573C26.7729 10.4573 26.1996 11.0306 26.1996 11.7378C26.1996 12.445 26.7729 13.0183 27.4801 13.0183Z" fill="black"/>
<path d="M20.9146 24.7561H14.0854V27.317H20.9146V24.7561Z" fill="black"/>
</g>
<defs>
<clipPath id="clip0_1_403">
<rect width="35" height="35" fill="white"/>
</clipPath>
</defs>
</svg>
