<svg width="35" height="35" viewBox="0 0 35 35" fill="none" xmlns="http://www.w3.org/2000/svg">
<path d="M24.602 9.38741C24.602 8.94231 24.9628 8.58155 25.4079 8.58155H26.3035C26.7486 8.58155 27.1093 8.94231 27.1093 9.38741C27.1093 9.83252 26.7486 10.1933 26.3035 10.1933H25.4079C24.9628 10.1933 24.602 9.83243 24.602 9.38741ZM23.1429 9.38741C23.1429 8.94231 22.7821 8.58155 22.337 8.58155H21.4415C20.9964 8.58155 20.6357 8.94231 20.6357 9.38741C20.6357 9.83252 20.9964 10.1933 21.4415 10.1933H22.337C22.7821 10.1933 23.1429 9.83243 23.1429 9.38741ZM21.0484 4.26803C21.8898 3.75353 22.859 3.4816 23.8511 3.4816C23.9952 3.4816 24.138 3.48724 24.2793 3.49843C23.5325 4.65771 22.4468 5.49572 21.2245 5.83759C20.7959 5.95748 20.5457 6.40214 20.6656 6.83077C20.7855 7.2594 21.2299 7.51002 21.6587 7.38968C23.4278 6.89488 24.9662 5.62851 25.9182 3.89447C27.8618 4.70633 29.2313 6.62724 29.2313 8.86181C29.2313 11.1655 27.7826 13.1847 25.6496 13.9366C25.3961 13.7226 25.0685 13.5958 24.7114 13.5958H22.9907C22.1875 13.5958 21.5339 14.2252 21.5339 15.0284C21.5339 15.8316 22.1875 16.4611 22.9907 16.4611H24.7114C25.3629 16.4611 25.916 16.0528 26.1016 15.4617C28.1782 14.7594 29.7879 13.1505 30.4813 11.1373C31.4172 10.9101 32.0279 10.341 32.0279 9.6264V7.84025C32.0279 7.09867 31.372 6.50233 30.3743 6.29433C29.3487 3.70554 26.8102 1.86978 23.8608 1.86978C22.5718 1.86978 21.307 2.22356 20.2124 2.89305C19.8327 3.12523 19.7106 3.62128 19.9429 4.00093C20.1751 4.38067 20.6684 4.50012 21.0484 4.26803ZM4.79076 11.199C5.02411 11.2375 5.25029 11.1718 5.43107 11.0187C5.61167 10.8655 5.70309 10.6407 5.70309 10.404V8.86172C5.70309 5.89507 8.12794 3.48151 11.0946 3.48151C11.2387 3.48151 11.3874 3.48715 11.5287 3.49834C10.7817 4.65771 9.69892 5.49563 8.4767 5.8375C8.04815 5.95739 7.79932 6.40205 7.91922 6.83059C8.0392 7.25922 8.48502 7.50993 8.91303 7.38959C10.682 6.89488 12.2206 5.62851 13.1728 3.89438C15.1165 4.70624 16.486 6.62715 16.486 8.86172C16.486 11.1654 15.0374 13.1847 12.9046 13.9365C12.651 13.7225 12.3236 13.5957 11.9664 13.5957H10.2457C9.44248 13.5957 8.78901 14.2251 8.78901 15.0283C8.78901 15.8315 9.44248 16.461 10.2457 16.461H11.9664C12.6179 16.461 13.1709 16.0527 13.3566 15.4616C15.4334 14.7595 17.0131 13.1507 17.7065 11.1372C18.6426 10.91 19.2237 10.341 19.2237 9.62631V7.84025C19.2237 7.09867 18.5974 6.50224 17.5995 6.29433C16.5739 3.70545 14.0503 1.86978 11.1009 1.86978C8.14772 1.86978 5.62143 3.71046 4.59843 6.30445C3.6279 6.52114 3.01688 7.1104 3.01688 7.84016V9.62631C3.01688 10.4026 3.71144 11.0199 4.79076 11.199ZM10.3979 9.38741C10.3979 8.94231 10.0371 8.58155 9.59201 8.58155H8.69652C8.25141 8.58155 7.89065 8.94231 7.89065 9.38741C7.89065 9.83252 8.25141 10.1933 8.69652 10.1933H9.59201C10.0371 10.1933 10.3979 9.83243 10.3979 9.38741ZM22.2273 32.1287L19.861 22.4006C19.3317 20.2217 16.7703 18.5204 14.0301 18.5204H13.9193C13.575 18.5204 13.2688 18.7336 13.1571 19.0592C12.9673 19.6119 12.2093 20.1687 11.1274 20.1687C10.0458 20.1687 9.28784 19.6133 9.09811 19.0606C8.98636 18.7349 8.68013 18.5204 8.33585 18.5204H8.225C5.48497 18.5204 2.92385 20.2217 2.39422 22.4005L0.0276637 32.1317C0.017277 32.1706 0.00966605 32.2092 0.00509949 32.2501C-0.00645122 32.3522 0.00187604 32.4523 0.0274846 32.5474C0.0491534 32.6286 0.0832682 32.7045 0.127591 32.7736C0.222772 32.922 0.366485 33.0395 0.542969 33.1001C0.542969 33.1001 0.542969 33.1002 0.542969 33.1001C0.543416 33.1002 0.543774 33.1003 0.544222 33.1004C0.572069 33.11 0.600543 33.1038 0.629644 33.1102C0.697247 33.1255 0.764223 33.1154 0.830841 33.1154H5.66799C6.1131 33.1154 6.47386 32.7546 6.47386 32.3095C6.47386 31.8644 6.1131 31.5036 5.66799 31.5036H1.83137L3.96019 22.7613C4.28719 21.4161 6.01559 20.273 7.8423 20.129C8.4647 21.1185 9.72883 21.7739 11.1274 21.7739C12.5259 21.7739 13.7902 21.1238 14.4126 20.1344C16.2395 20.2784 17.968 21.4152 18.2948 22.7604L20.4235 31.5036H16.5868C16.1417 31.5036 15.781 31.8644 15.781 32.3095C15.781 32.7546 16.1417 33.1154 16.5868 33.1154H21.424C21.4319 33.1154 21.44 33.1299 21.4481 33.1299C21.5074 33.1299 21.5678 33.1304 21.628 33.1167C21.6553 33.1105 21.682 33.1065 21.7082 33.0976C21.8862 33.0374 22.0312 32.921 22.1271 32.7716C22.1715 32.7026 22.2057 32.627 22.2274 32.5457C22.2529 32.4507 22.2613 32.3505 22.2498 32.2487C22.2455 32.2077 22.2379 32.1679 22.2273 32.1287ZM34.9949 32.2493C34.9904 32.2081 34.9828 32.1679 34.9722 32.1287L32.6059 22.4006C32.0764 20.2217 29.5151 18.5204 26.775 18.5204H26.6642C26.3199 18.5204 26.0137 18.7336 25.902 19.0592C25.7122 19.6119 24.9541 20.1687 23.8723 20.1687C22.7906 20.1687 22.0327 19.6078 21.8429 19.0551C21.6984 18.6341 21.2397 18.4095 20.819 18.5538C20.3981 18.6983 20.174 19.1564 20.3184 19.5773C20.7632 20.8731 22.2245 21.7778 23.8722 21.7778C25.2708 21.7778 26.5351 21.1259 27.1575 20.1365C28.9844 20.2805 30.7128 21.4163 31.0397 22.7615L33.1684 31.5038H29.3318C28.8867 31.5038 28.526 31.8646 28.526 32.3097C28.526 32.7548 28.8867 33.1155 29.3318 33.1155H34.1689C34.1768 33.1155 34.1849 33.1301 34.1931 33.1301C34.2523 33.1301 34.3127 33.1307 34.3729 33.1169C34.4002 33.1107 34.4269 33.1067 34.4531 33.0978C34.6311 33.0375 34.7761 32.9211 34.872 32.7718C34.9165 32.7028 34.9507 32.6272 34.9723 32.5459C34.9981 32.451 35.0064 32.3511 34.9949 32.2493ZM12.663 10.1933H13.5583C14.0034 10.1933 14.3642 9.83252 14.3642 9.38741C14.3642 8.94231 14.0034 8.58155 13.5583 8.58155H12.663C12.2179 8.58155 11.8571 8.94231 11.8571 9.38741C11.8571 9.83252 12.2179 10.1933 12.663 10.1933Z" fill="black"/>
</svg>
