<svg width="35" height="35" viewBox="0 0 35 35" fill="none" xmlns="http://www.w3.org/2000/svg">
<path d="M29.1667 10.2083H26.25C25.4764 10.2083 24.7346 10.5156 24.1876 11.0626C23.6406 11.6096 23.3333 12.3514 23.3333 13.125V29.1667H21.875V17.5C21.875 16.7264 21.5677 15.9846 21.0207 15.4376C20.4737 14.8906 19.7319 14.5833 18.9583 14.5833H16.0417C15.2681 14.5833 14.5262 14.8906 13.9793 15.4376C13.4323 15.9846 13.125 16.7264 13.125 17.5V29.1667H11.6667V23.3333C11.6667 22.5598 11.3594 21.8179 10.8124 21.2709C10.2654 20.724 9.52354 20.4167 8.74999 20.4167H5.83332C5.05977 20.4167 4.31791 20.724 3.77093 21.2709C3.22395 21.8179 2.91666 22.5598 2.91666 23.3333V30.625C2.91666 31.0118 3.0703 31.3827 3.34379 31.6562C3.61728 31.9297 3.98822 32.0833 4.37499 32.0833H30.625C31.0118 32.0833 31.3827 31.9297 31.6562 31.6562C31.9297 31.3827 32.0833 31.0118 32.0833 30.625V13.125C32.0833 12.3514 31.776 11.6096 31.229 11.0626C30.6821 10.5156 29.9402 10.2083 29.1667 10.2083ZM5.83332 29.1667V23.3333H8.74999V29.1667H5.83332ZM16.0417 29.1667V17.5H18.9583V29.1667H16.0417ZM26.25 29.1667V13.125H29.1667V29.1667H26.25Z" fill="black"/>
<path d="M5.55624 18.3458L12.2208 9.0125L19.95 11.6667C20.1462 11.7333 20.3543 11.7573 20.5605 11.7372C20.7667 11.7171 20.9662 11.6533 21.1458 11.55L31.3542 5.71667C31.6907 5.52328 31.9365 5.20414 32.0377 4.82946C32.1389 4.45478 32.0871 4.05524 31.8937 3.71875C31.7004 3.38226 31.3812 3.13637 31.0065 3.03518C30.6319 2.93399 30.2323 2.98578 29.8958 3.17917L20.2562 8.61875L12.1333 5.90625C11.8371 5.808 11.5171 5.80739 11.2205 5.90452C10.9238 6.00164 10.6662 6.19138 10.4854 6.44583L3.19374 16.6542C2.97085 16.9679 2.88102 17.3571 2.94386 17.7368C3.00669 18.1165 3.21708 18.456 3.52916 18.6813C3.77534 18.8595 4.07107 18.9564 4.37499 18.9583C4.60636 18.9573 4.83415 18.9012 5.03955 18.7947C5.24494 18.6882 5.42205 18.5343 5.55624 18.3458Z" fill="black"/>
</svg>
