<svg width="18" height="19" viewBox="0 0 18 19" fill="none" xmlns="http://www.w3.org/2000/svg">
<path d="M9 4.20917C12.8533 4.20917 16.3929 7.13844 16.3929 9.35202C16.3929 11.5656 12.8533 14.4949 9 14.4949C5.14668 14.4949 1.60715 11.5656 1.60715 9.35202C1.60715 7.13844 5.14668 4.20917 9 4.20917ZM9 5.49488C5.80868 5.49488 2.89286 7.90798 2.89286 9.35202C2.89286 10.7961 5.80868 13.2092 9 13.2092C12.1913 13.2092 15.1071 10.7961 15.1071 9.35202C15.1071 7.90798 12.1913 5.49488 9 5.49488ZM9 6.7806C10.4202 6.7806 11.5714 7.93186 11.5714 9.35202C11.5714 10.7722 10.4202 11.9235 9 11.9235C7.57984 11.9235 6.42858 10.7722 6.42858 9.35202C6.42858 7.93186 7.57984 6.7806 9 6.7806ZM9 8.06631C8.28992 8.06631 7.71429 8.64194 7.71429 9.35202C7.71429 10.0621 8.28992 10.6377 9 10.6377C9.71008 10.6377 10.2857 10.0621 10.2857 9.35202C10.2857 8.64194 9.71008 8.06631 9 8.06631Z" fill="#004EB7"/>
</svg>
